<svg width="25" height="25" viewBox="0 0 25 25" fill="none" xmlns="http://www.w3.org/2000/svg">
<g clip-path="url(#clip0_1_431)">
<path d="M23.2307 5.39787C22.5726 4.22724 21.8584 4.01192 20.4042 3.93003C18.9515 3.83147 15.2986 3.79053 12.134 3.79053C8.96323 3.79053 5.30879 3.83147 3.85763 3.92852C2.40647 4.01192 1.69075 4.22572 1.02658 5.39787C0.348764 6.56699 0 8.58073 0 12.126C0 12.129 0 12.1305 0 12.1305C0 12.1336 0 12.1351 0 12.1351V12.1381C0 15.6682 0.348764 17.6971 1.02658 18.8541C1.69075 20.0247 2.40496 20.237 3.85612 20.3356C5.30879 20.4205 8.96323 20.4705 12.134 20.4705C15.2986 20.4705 18.9515 20.4205 20.4057 20.3371C21.8599 20.2385 22.5741 20.0262 23.2322 18.8556C23.9161 17.6986 24.2618 15.6697 24.2618 12.1396C24.2618 12.1396 24.2618 12.1351 24.2618 12.1321C24.2618 12.1321 24.2618 12.129 24.2618 12.1275C24.2618 8.58073 23.9161 6.56699 23.2307 5.39787ZM9.09819 16.6796V7.58144L16.68 12.1305L9.09819 16.6796Z" fill="white"/>
</g>
<defs>
<clipPath id="clip0_1_431">
<rect width="24.2618" height="24.2618" fill="white"/>
</clipPath>
</defs>
</svg>
